<?xml version="1.0" encoding="UTF-8"?>
<svg width="700pt" height="700pt" version="1.1" viewBox="0 0 700 700" xmlns="http://www.w3.org/2000/svg" xmlns:xlink="http://www.w3.org/1999/xlink">
 <defs>
  <symbol id="v" overflow="visible">
   <path d="m3.7188-0.21875c-0.1875 0.09375-0.38672 0.16797-0.59375 0.21875-0.21094 0.050781-0.42969 0.078125-0.65625 0.078125-0.66797 0-1.1992-0.1875-1.5938-0.5625-0.39844-0.375-0.59375-0.89062-0.59375-1.5469 0-0.64453 0.19531-1.1562 0.59375-1.5312 0.39453-0.375 0.92578-0.5625 1.5938-0.5625 0.22656 0 0.44531 0.027344 0.65625 0.078125 0.20703 0.054687 0.40625 0.125 0.59375 0.21875v0.84375c-0.1875-0.13281-0.375-0.23438-0.5625-0.29688s-0.38672-0.09375-0.59375-0.09375c-0.375 0-0.67188 0.12109-0.89062 0.35938-0.21094 0.24219-0.3125 0.57031-0.3125 0.98438 0 0.42969 0.10156 0.76172 0.3125 1 0.21875 0.24219 0.51562 0.35938 0.89062 0.35938 0.20703 0 0.40625-0.03125 0.59375-0.09375s0.375-0.16016 0.5625-0.29688z"/>
  </symbol>
  <symbol id="d" overflow="visible">
   <path d="m2.7344-2.2188c-0.09375-0.03125-0.18359-0.054688-0.26562-0.078125-0.085938-0.019531-0.16797-0.03125-0.25-0.03125-0.25 0-0.44531 0.085937-0.57812 0.25-0.13672 0.15625-0.20312 0.38281-0.20312 0.67188v1.4062h-0.96875v-3.0469h0.96875v0.5c0.125-0.19531 0.26562-0.33594 0.42188-0.42188 0.16406-0.09375 0.36328-0.14062 0.59375-0.14062h0.09375c0.039063 0 0.097656 0.007813 0.17188 0.015625z"/>
  </symbol>
  <symbol id="b" overflow="visible">
   <path d="m3.5-1.5312v0.28125h-2.2656c0.019531 0.23047 0.097656 0.40234 0.23438 0.51562 0.14453 0.11719 0.34375 0.17188 0.59375 0.17188 0.20703 0 0.41406-0.03125 0.625-0.09375 0.21875-0.0625 0.44141-0.15625 0.67188-0.28125v0.75c-0.23047 0.09375-0.46094 0.16406-0.6875 0.20312-0.23047 0.039062-0.46094 0.0625-0.6875 0.0625-0.55469 0-0.98438-0.14062-1.2969-0.42188-0.30469-0.28125-0.45312-0.67188-0.45312-1.1719s0.14844-0.89062 0.45312-1.1719c0.30078-0.28125 0.71094-0.42188 1.2344-0.42188 0.47656 0 0.85938 0.14844 1.1406 0.4375 0.28906 0.28125 0.4375 0.66406 0.4375 1.1406zm-1-0.32812c0-0.17578-0.054688-0.32031-0.15625-0.4375-0.10547-0.11328-0.24609-0.17188-0.42188-0.17188-0.1875 0-0.34375 0.054688-0.46875 0.15625-0.11719 0.10547-0.1875 0.25781-0.21875 0.45312z"/>
  </symbol>
  <symbol id="l" overflow="visible">
   <path d="m1.8281-1.375c-0.19922 0-0.35156 0.039062-0.45312 0.10938-0.10547 0.074219-0.15625 0.17188-0.15625 0.29688s0.039062 0.22656 0.125 0.29688c0.082031 0.074219 0.19531 0.10938 0.34375 0.10938 0.1875 0 0.33594-0.066406 0.45312-0.20312 0.125-0.13281 0.1875-0.29688 0.1875-0.48438v-0.125zm1.4844-0.35938v1.7344h-0.98438v-0.45312c-0.125 0.1875-0.27344 0.32422-0.4375 0.40625-0.15625 0.082031-0.35547 0.125-0.59375 0.125-0.3125 0-0.57031-0.085938-0.76562-0.26562-0.19922-0.1875-0.29688-0.42578-0.29688-0.71875 0-0.36328 0.11719-0.62891 0.35938-0.79688 0.25-0.16406 0.64062-0.25 1.1719-0.25h0.5625v-0.078125c0-0.14453-0.0625-0.25391-0.1875-0.32812-0.11719-0.070313-0.29688-0.10938-0.54688-0.10938-0.21094 0-0.40625 0.023438-0.59375 0.0625-0.17969 0.042969-0.34375 0.10547-0.5 0.1875v-0.73438c0.20703-0.050781 0.41406-0.085937 0.625-0.10938 0.21875-0.03125 0.42969-0.046875 0.64062-0.046875 0.53906 0 0.92969 0.10938 1.1719 0.32812 0.25 0.21094 0.375 0.55859 0.375 1.0469z"/>
  </symbol>
  <symbol id="a" overflow="visible">
   <path d="m1.5312-3.9062v0.85938h1v0.70312h-1v1.2812c0 0.14844 0.023438 0.24609 0.078125 0.29688 0.0625 0.042969 0.17578 0.0625 0.34375 0.0625h0.5v0.70312h-0.84375c-0.38672 0-0.65625-0.078125-0.8125-0.23438-0.15625-0.16406-0.23438-0.44141-0.23438-0.82812v-1.2812h-0.48438v-0.70312h0.48438v-0.85938z"/>
  </symbol>
  <symbol id="f" overflow="visible">
   <path d="m2.5312-2.5938v-1.625h0.98438v4.2188h-0.98438v-0.4375c-0.13672 0.17969-0.28125 0.30859-0.4375 0.39062-0.15625 0.082031-0.34375 0.125-0.5625 0.125-0.375 0-0.68359-0.14453-0.92188-0.4375-0.24219-0.30078-0.35938-0.6875-0.35938-1.1562s0.11719-0.84766 0.35938-1.1406c0.23828-0.30078 0.54688-0.45312 0.92188-0.45312 0.20703 0 0.39062 0.042969 0.54688 0.125 0.16406 0.085937 0.31641 0.21484 0.45312 0.39062zm-0.64062 1.9688c0.20703 0 0.36328-0.070312 0.46875-0.21875 0.11328-0.15625 0.17188-0.37891 0.17188-0.67188 0-0.28906-0.058594-0.50781-0.17188-0.65625-0.10547-0.15625-0.26172-0.23438-0.46875-0.23438-0.19922 0-0.35547 0.078125-0.46875 0.23438-0.11719 0.14844-0.17188 0.36719-0.17188 0.65625 0 0.29297 0.054688 0.51562 0.17188 0.67188 0.11328 0.14844 0.26953 0.21875 0.46875 0.21875z"/>
  </symbol>
  <symbol id="k" overflow="visible">
   <path d="m2.0938-0.625c0.19531 0 0.35156-0.070312 0.46875-0.21875 0.11328-0.15625 0.17188-0.37891 0.17188-0.67188 0-0.28906-0.058594-0.50781-0.17188-0.65625-0.11719-0.15625-0.27344-0.23438-0.46875-0.23438-0.21094 0-0.37109 0.078125-0.48438 0.23438-0.11719 0.14844-0.17188 0.36719-0.17188 0.65625 0 0.28125 0.054688 0.5 0.17188 0.65625 0.11328 0.15625 0.27344 0.23438 0.48438 0.23438zm-0.65625-1.9688c0.13281-0.17578 0.28125-0.30469 0.4375-0.39062 0.16406-0.082031 0.35938-0.125 0.57812-0.125 0.375 0 0.67969 0.15234 0.92188 0.45312 0.23828 0.29297 0.35938 0.67188 0.35938 1.1406s-0.12109 0.85547-0.35938 1.1562c-0.24219 0.29297-0.54688 0.4375-0.92188 0.4375-0.21875 0-0.41406-0.042969-0.57812-0.125-0.15625-0.082031-0.30469-0.21094-0.4375-0.39062v0.4375h-0.96875v-4.2188h0.96875z"/>
  </symbol>
  <symbol id="e" overflow="visible">
   <path d="m0.0625-3.0469h0.98438l0.8125 2.0625 0.6875-2.0625h0.98438l-1.2812 3.3281c-0.13672 0.34375-0.28906 0.58203-0.45312 0.71875-0.16797 0.13281-0.39062 0.20312-0.67188 0.20312h-0.5625v-0.64062h0.29688c0.16406 0 0.28516-0.027344 0.35938-0.078125 0.070312-0.054687 0.12891-0.14844 0.17188-0.28125l0.03125-0.09375z"/>
  </symbol>
  <symbol id="j" overflow="visible">
   <path d="m2.9688-0.73438h-1.625l-0.26562 0.73438h-1.0469l1.5-4.0625h1.25l1.5 4.0625h-1.0469zm-1.375-0.75h1.1094l-0.54688-1.625z"/>
  </symbol>
  <symbol id="i" overflow="visible">
   <path d="m3.2812-2.5312c0.125-0.1875 0.26953-0.32812 0.4375-0.42188 0.17578-0.10156 0.36328-0.15625 0.5625-0.15625 0.35156 0 0.61719 0.10938 0.79688 0.32812 0.1875 0.21094 0.28125 0.51562 0.28125 0.92188v1.8594h-0.98438v-1.5938-0.0625c0.007812-0.03125 0.015625-0.066406 0.015625-0.10938 0-0.21875-0.039063-0.375-0.10938-0.46875-0.0625-0.09375-0.16406-0.14062-0.29688-0.14062-0.1875 0-0.33594 0.078125-0.4375 0.23438-0.09375 0.14844-0.14844 0.35938-0.15625 0.64062v1.5h-0.96875v-1.5938c0-0.33203-0.03125-0.54688-0.09375-0.64062-0.054687-0.09375-0.15234-0.14062-0.29688-0.14062-0.1875 0-0.33594 0.078125-0.4375 0.23438-0.10547 0.14844-0.15625 0.35938-0.15625 0.64062v1.5h-0.96875v-3.0469h0.96875v0.45312c0.125-0.17578 0.25781-0.30469 0.40625-0.39062 0.15625-0.082031 0.32812-0.125 0.51562-0.125 0.20703 0 0.39062 0.054687 0.54688 0.15625 0.16406 0.09375 0.28906 0.23438 0.375 0.42188z"/>
  </symbol>
  <symbol id="h" overflow="visible">
   <path d="m3.5312-1.8594v1.8594h-0.98438v-1.4062c0-0.26953-0.007813-0.45312-0.015625-0.54688-0.011719-0.10156-0.03125-0.17969-0.0625-0.23438-0.042969-0.0625-0.09375-0.10938-0.15625-0.14062s-0.13672-0.046875-0.21875-0.046875c-0.21094 0-0.37109 0.078125-0.48438 0.23438-0.11719 0.15625-0.17188 0.37109-0.17188 0.64062v1.5h-0.96875v-4.2188h0.96875v1.625c0.14453-0.17578 0.30078-0.30469 0.46875-0.39062 0.16406-0.082031 0.34766-0.125 0.54688-0.125 0.35156 0 0.61719 0.10938 0.79688 0.32812 0.1875 0.21094 0.28125 0.51562 0.28125 0.92188z"/>
  </symbol>
  <symbol id="u" overflow="visible">
   <path d="m2.8438-2.9531v0.75c-0.21094-0.09375-0.41406-0.16016-0.60938-0.20312-0.1875-0.039062-0.37109-0.0625-0.54688-0.0625-0.17969 0-0.3125 0.027344-0.40625 0.078125-0.09375 0.042969-0.14062 0.10938-0.14062 0.20312 0 0.085938 0.03125 0.14844 0.09375 0.1875 0.070313 0.042969 0.19531 0.070312 0.375 0.078125l0.17188 0.03125c0.5 0.0625 0.83203 0.16797 1 0.3125 0.17578 0.14844 0.26562 0.375 0.26562 0.6875 0 0.32422-0.12109 0.57031-0.35938 0.73438-0.24219 0.15625-0.59375 0.23438-1.0625 0.23438-0.21094 0-0.42188-0.015625-0.64062-0.046875-0.21094-0.03125-0.42969-0.078125-0.65625-0.14062v-0.73438c0.19531 0.09375 0.39453 0.16797 0.59375 0.21875 0.20703 0.042969 0.41406 0.0625 0.625 0.0625 0.19531 0 0.34375-0.023438 0.4375-0.078125 0.09375-0.050781 0.14062-0.12891 0.14062-0.23438 0-0.09375-0.039062-0.16016-0.10938-0.20312-0.0625-0.039063-0.19531-0.070313-0.39062-0.09375l-0.17188-0.015625c-0.42969-0.0625-0.73047-0.16406-0.90625-0.3125-0.17969-0.14453-0.26562-0.36719-0.26562-0.67188 0-0.3125 0.10938-0.54688 0.32812-0.70312 0.22656-0.15625 0.57031-0.23438 1.0312-0.23438 0.17578 0 0.36328 0.015625 0.5625 0.046875 0.19531 0.023438 0.41016 0.058594 0.64062 0.10938z"/>
  </symbol>
  <symbol id="t" overflow="visible">
   <path d="m3.3281-3.9219v0.85938c-0.21875-0.10156-0.4375-0.17969-0.65625-0.23438-0.21094-0.050781-0.40625-0.078125-0.59375-0.078125-0.25 0-0.4375 0.039062-0.5625 0.10938-0.11719 0.0625-0.17188 0.16797-0.17188 0.3125 0 0.11719 0.039062 0.20312 0.125 0.26562 0.082031 0.054688 0.22656 0.10547 0.4375 0.15625l0.45312 0.078125c0.44531 0.09375 0.76562 0.23438 0.95312 0.42188s0.28125 0.44922 0.28125 0.78125c0 0.44922-0.13672 0.78125-0.40625 1-0.26172 0.21875-0.66406 0.32812-1.2031 0.32812-0.26172 0-0.52344-0.027344-0.78125-0.078125-0.25-0.039062-0.50781-0.11328-0.76562-0.21875v-0.875c0.25781 0.13672 0.50781 0.24219 0.75 0.3125 0.23828 0.074219 0.47266 0.10938 0.70312 0.10938 0.22656 0 0.39844-0.035156 0.51562-0.10938 0.125-0.082031 0.1875-0.19531 0.1875-0.34375 0-0.125-0.042969-0.21875-0.125-0.28125-0.085938-0.070312-0.25-0.13281-0.5-0.1875l-0.40625-0.09375c-0.39844-0.082031-0.6875-0.21875-0.875-0.40625-0.1875-0.19531-0.28125-0.45703-0.28125-0.78125 0-0.40625 0.12891-0.71094 0.39062-0.92188 0.25781-0.21875 0.63281-0.32812 1.125-0.32812 0.21875 0 0.44141 0.015625 0.67188 0.046875 0.23828 0.03125 0.48438 0.085937 0.73438 0.15625z"/>
  </symbol>
  <symbol id="g" overflow="visible">
   <path d="m0.4375-1.1875v-1.8594h0.96875v0.3125 0.625 0.48438c0 0.25 0.003906 0.43359 0.015625 0.54688 0.007813 0.10547 0.03125 0.17969 0.0625 0.21875 0.039063 0.0625 0.09375 0.11719 0.15625 0.15625 0.070313 0.03125 0.14844 0.046875 0.23438 0.046875 0.19531 0 0.35156-0.078125 0.46875-0.23438 0.11328-0.15625 0.17188-0.375 0.17188-0.65625v-1.5h0.98438v3.0469h-0.98438v-0.4375c-0.14844 0.17969-0.30469 0.30859-0.46875 0.39062-0.15625 0.082031-0.33594 0.125-0.53125 0.125-0.35547 0-0.625-0.10156-0.8125-0.3125-0.17969-0.21875-0.26562-0.53516-0.26562-0.95312z"/>
  </symbol>
  <symbol id="s" overflow="visible">
   <path d="m0.46875-3.0469h0.96875v3.0469h-0.96875zm0-1.1719h0.96875v0.78125h-0.96875z"/>
  </symbol>
  <symbol id="c" overflow="visible">
   <path d="m1.9219-2.4219c-0.21875 0-0.38672 0.078125-0.5 0.23438-0.11719 0.15625-0.17188 0.38281-0.17188 0.67188 0 0.29297 0.054688 0.51562 0.17188 0.67188 0.11328 0.15625 0.28125 0.23438 0.5 0.23438 0.20703 0 0.36328-0.078125 0.46875-0.23438 0.11328-0.15625 0.17188-0.37891 0.17188-0.67188 0-0.28906-0.058594-0.51562-0.17188-0.67188-0.10547-0.15625-0.26172-0.23438-0.46875-0.23438zm0-0.6875c0.51953 0 0.92578 0.14062 1.2188 0.42188 0.28906 0.28125 0.4375 0.67188 0.4375 1.1719s-0.14844 0.89062-0.4375 1.1719c-0.29297 0.28125-0.69922 0.42188-1.2188 0.42188-0.53125 0-0.94922-0.14062-1.25-0.42188-0.29297-0.28125-0.4375-0.67188-0.4375-1.1719s0.14453-0.89062 0.4375-1.1719c0.30078-0.28125 0.71875-0.42188 1.25-0.42188z"/>
  </symbol>
  <symbol id="r" overflow="visible">
   <path d="m2.4688-4.2188v0.625h-0.53125c-0.14844 0-0.24609 0.027344-0.29688 0.078125-0.054687 0.054687-0.078125 0.14062-0.078125 0.26562v0.20312h0.82812v0.70312h-0.82812v2.3438h-0.96875v-2.3438h-0.48438v-0.70312h0.48438v-0.20312c0-0.33203 0.085938-0.57812 0.26562-0.73438 0.1875-0.15625 0.47266-0.23438 0.85938-0.23438z"/>
  </symbol>
  <symbol id="q" overflow="visible">
   <path d="m0.51562-4.0625h1.1562l1.4844 2.7812v-2.7812h0.98438v4.0625h-1.1562l-1.4844-2.7812v2.7812h-0.98438z"/>
  </symbol>
  <symbol id="p" overflow="visible">
   <path d="m3.5312-1.8594v1.8594h-0.98438v-1.4219c0-0.25781-0.007813-0.4375-0.015625-0.53125-0.011719-0.10156-0.03125-0.17969-0.0625-0.23438-0.042969-0.0625-0.09375-0.10938-0.15625-0.14062s-0.13672-0.046875-0.21875-0.046875c-0.21094 0-0.37109 0.078125-0.48438 0.23438-0.11719 0.15625-0.17188 0.37109-0.17188 0.64062v1.5h-0.96875v-3.0469h0.96875v0.45312c0.14453-0.17578 0.30078-0.30469 0.46875-0.39062 0.16406-0.082031 0.34766-0.125 0.54688-0.125 0.35156 0 0.61719 0.10938 0.79688 0.32812 0.1875 0.21094 0.28125 0.51562 0.28125 0.92188z"/>
  </symbol>
  <symbol id="o" overflow="visible">
   <path d="m0.51562-4.0625h1.7344c0.50781 0 0.89844 0.11719 1.1719 0.34375 0.28125 0.23047 0.42188 0.55859 0.42188 0.98438 0 0.42969-0.14062 0.75781-0.42188 0.98438-0.27344 0.23047-0.66406 0.34375-1.1719 0.34375h-0.6875v1.4062h-1.0469zm1.0469 0.76562v1.125h0.57812c0.19531 0 0.34766-0.046875 0.45312-0.14062 0.11328-0.09375 0.17188-0.23438 0.17188-0.42188 0-0.17578-0.058594-0.3125-0.17188-0.40625-0.10547-0.10156-0.25781-0.15625-0.45312-0.15625z"/>
  </symbol>
  <symbol id="n" overflow="visible">
   <path d="m0.46875-3.0469h0.96875v3c0 0.40625-0.10156 0.71094-0.29688 0.92188-0.1875 0.21875-0.46875 0.32812-0.84375 0.32812h-0.48438v-0.64062h0.17188c0.1875 0 0.3125-0.042969 0.375-0.125 0.070313-0.085938 0.10938-0.24609 0.10938-0.48438zm0-1.1719h0.96875v0.78125h-0.96875z"/>
  </symbol>
  <symbol id="m" overflow="visible">
   <path d="m2.9219-2.9531v0.79688c-0.125-0.09375-0.25781-0.16016-0.39062-0.20312-0.13672-0.039063-0.27734-0.0625-0.42188-0.0625-0.27344 0-0.48438 0.085937-0.64062 0.25-0.14844 0.15625-0.21875 0.375-0.21875 0.65625s0.070312 0.50781 0.21875 0.67188c0.15625 0.15625 0.36719 0.23438 0.64062 0.23438 0.15625 0 0.30078-0.019531 0.4375-0.0625 0.13281-0.050781 0.25781-0.125 0.375-0.21875v0.79688c-0.14844 0.0625-0.29688 0.10156-0.45312 0.125-0.15625 0.03125-0.32031 0.046875-0.48438 0.046875-0.54297 0-0.96875-0.14062-1.2812-0.42188s-0.46875-0.67188-0.46875-1.1719 0.15625-0.89062 0.46875-1.1719 0.73828-0.42188 1.2812-0.42188c0.16406 0 0.32031 0.015625 0.46875 0.046875 0.15625 0.023438 0.3125 0.058594 0.46875 0.10938z"/>
  </symbol>
 </defs>
 <g>
  <path d="m489.91 49.293 0.48438-0.34375c7.125-5.0547 11.379-13.266 11.379-21.965-0.003906-14.879-12.18-26.984-27.141-26.984h-249.26c-14.961 0-27.137 12.105-27.137 26.984 0 8.6992 4.2539 16.914 11.375 21.965l0.48828 0.34375c14.098 10 22.516 26.238 22.516 43.438 0 11.473-3.625 22.422-10.477 31.66l-21.203 28.578c-29 39.082-45.012 85.23-46.312 133.46-0.71484 26.527 0.75391 53.285 4.3672 79.523 8.1836 59.438 27.137 116.5 56.336 169.62 8.2852 15.07 24.16 24.43 41.434 24.43h186.49c17.273 0 33.148-9.3594 41.434-24.426 29.199-53.113 48.156-110.18 56.336-169.62 3.6133-26.238 5.082-52.996 4.3672-79.523-1.3008-48.23-17.312-94.379-46.305-133.46l-21.203-28.578c-6.8555-9.2383-10.477-20.188-10.477-31.66-0.007813-17.203 8.4102-33.441 22.508-43.445zm-13.02 482c-6.7227 12.223-19.613 19.816-33.645 19.816h-186.48c-14.031 0-26.922-7.5938-33.641-19.82-1.8789-3.418-3.7109-6.8555-5.5039-10.309h264.78c-1.793 3.4531-3.625 6.8906-5.5039 10.312zm-18.383-438.56c0 13.395 4.2266 26.176 12.227 36.957l21.203 28.578c27.898 37.605 43.309 82.008 44.559 128.4 0.70312 26.043-0.74219 52.312-4.2852 78.07-7.0586 51.262-22.285 100.73-45.312 147.35h-273.79c-23.031-46.625-38.258-96.09-45.312-147.35-3.5469-25.762-4.9883-52.027-4.2852-78.07 1.25-46.395 16.656-90.797 44.559-128.4l21.203-28.578c8-10.781 12.227-23.562 12.227-36.957 0-20.074-9.8164-39.023-26.258-50.688l-0.48828-0.34375c-4.7773-3.3906-7.6328-8.8906-7.6328-14.715 0-9.9805 8.1875-18.098 18.25-18.098h249.25c10.062 0 18.25 8.1172 18.25 18.094 0 5.8242-2.8516 11.328-7.6328 14.715l-0.48438 0.34375c-16.438 11.664-26.254 30.613-26.254 50.691z"/>
  <path d="m443.3 43.895h-186.61c-2.4531 0-4.4453 1.9883-4.4453 4.4453 0 2.4531 1.9883 4.4453 4.4453 4.4453h186.61c2.4531 0 4.4453-1.9883 4.4453-4.4453 0-2.457-1.9922-4.4453-4.4453-4.4453z"/>
  <use x="154.445312" y="576.667969" xlink:href="#v"/>
  <use x="158.523438" y="576.667969" xlink:href="#d"/>
  <use x="161.261719" y="576.667969" xlink:href="#b"/>
  <use x="165.03125" y="576.667969" xlink:href="#l"/>
  <use x="168.78125" y="576.667969" xlink:href="#a"/>
  <use x="171.4375" y="576.667969" xlink:href="#b"/>
  <use x="175.203125" y="576.667969" xlink:href="#f"/>
  <use x="181.113281" y="576.667969" xlink:href="#k"/>
  <use x="185.089844" y="576.667969" xlink:href="#e"/>
  <use x="190.648438" y="576.667969" xlink:href="#j"/>
  <use x="194.945312" y="576.667969" xlink:href="#i"/>
  <use x="200.734375" y="576.667969" xlink:href="#b"/>
  <use x="204.503906" y="576.667969" xlink:href="#a"/>
  <use x="207.160156" y="576.667969" xlink:href="#h"/>
  <use x="211.113281" y="576.667969" xlink:href="#e"/>
  <use x="214.734375" y="576.667969" xlink:href="#u"/>
  <use x="218.042969" y="576.667969" xlink:href="#a"/>
  <use x="222.632812" y="576.667969" xlink:href="#t"/>
  <use x="226.632812" y="576.667969" xlink:href="#a"/>
  <use x="229.289062" y="576.667969" xlink:href="#g"/>
  <use x="233.242188" y="576.667969" xlink:href="#f"/>
  <use x="237.21875" y="576.667969" xlink:href="#s"/>
  <use x="239.125" y="576.667969" xlink:href="#c"/>
  <use x="154.445312" y="582.222656" xlink:href="#r"/>
  <use x="156.863281" y="582.222656" xlink:href="#d"/>
  <use x="159.601562" y="582.222656" xlink:href="#c"/>
  <use x="163.417969" y="582.222656" xlink:href="#i"/>
  <use x="171.144531" y="582.222656" xlink:href="#a"/>
  <use x="173.796875" y="582.222656" xlink:href="#h"/>
  <use x="177.753906" y="582.222656" xlink:href="#b"/>
  <use x="183.457031" y="582.222656" xlink:href="#q"/>
  <use x="188.105469" y="582.222656" xlink:href="#c"/>
  <use x="191.921875" y="582.222656" xlink:href="#g"/>
  <use x="195.875" y="582.222656" xlink:href="#p"/>
  <use x="201.765625" y="582.222656" xlink:href="#o"/>
  <use x="205.835938" y="582.222656" xlink:href="#d"/>
  <use x="208.578125" y="582.222656" xlink:href="#c"/>
  <use x="212.394531" y="582.222656" xlink:href="#n"/>
  <use x="214.296875" y="582.222656" xlink:href="#b"/>
  <use x="218.066406" y="582.222656" xlink:href="#m"/>
  <use x="221.359375" y="582.222656" xlink:href="#a"/>
 </g>
</svg>
