<svg width="159" height="30" viewBox="0 0 159 30" fill="none" xmlns="http://www.w3.org/2000/svg">
<path d="M54.3504 14.0587H51.1151C51.072 13.7266 50.9836 13.4268 50.8499 13.1593C50.7161 12.8919 50.5393 12.6632 50.3193 12.4734C50.0993 12.2836 49.8383 12.1391 49.5364 12.0399C49.2387 11.9364 48.9087 11.8846 48.5464 11.8846C47.9036 11.8846 47.3493 12.0421 46.8835 12.357C46.4219 12.6719 46.066 13.127 45.8158 13.7222C45.57 14.3175 45.447 15.0379 45.447 15.8834C45.447 16.7634 45.5721 17.501 45.8223 18.0963C46.0768 18.6873 46.4327 19.1337 46.8899 19.4357C47.3515 19.7333 47.8972 19.8821 48.527 19.8821C48.8807 19.8821 49.202 19.8368 49.4911 19.7463C49.7844 19.6557 50.041 19.5241 50.261 19.3516C50.4854 19.1747 50.6687 18.9612 50.811 18.711C50.9577 18.4565 51.0591 18.1696 51.1151 17.8504L54.3504 17.8698C54.2943 18.4565 54.1239 19.0345 53.8392 19.6039C53.5588 20.1733 53.1728 20.6931 52.681 21.1633C52.1892 21.6292 51.5897 22.0001 50.8822 22.2762C50.1791 22.5523 49.3724 22.6903 48.4623 22.6903C47.2631 22.6903 46.189 22.4272 45.24 21.9009C44.2953 21.3704 43.549 20.5982 43.0012 19.5845C42.4533 18.5708 42.1794 17.3371 42.1794 15.8834C42.1794 14.4254 42.4577 13.1895 43.0141 12.1758C43.5706 11.1621 44.3233 10.3921 45.2723 9.86585C46.2213 9.33958 47.2846 9.07645 48.4623 9.07645C49.2646 9.07645 50.0065 9.1886 50.6881 9.41291C51.3697 9.63291 51.9693 9.95643 52.4869 10.3835C53.0045 10.8062 53.4251 11.326 53.7486 11.9429C54.0722 12.5597 54.2727 13.265 54.3504 14.0587ZM60.8225 22.6968C59.7786 22.6968 58.8813 22.4833 58.1308 22.0562C57.3845 21.6249 56.8086 21.0253 56.4031 20.2574C56.002 19.4853 55.8014 18.5902 55.8014 17.5722C55.8014 16.5498 56.002 15.6548 56.4031 14.8869C56.8086 14.1148 57.3845 13.5152 58.1308 13.0881C58.8813 12.6568 59.7786 12.4411 60.8225 12.4411C61.8664 12.4411 62.7615 12.6568 63.5077 13.0881C64.2583 13.5152 64.8342 14.1148 65.2353 14.8869C65.6408 15.6548 65.8436 16.5498 65.8436 17.5722C65.8436 18.5902 65.6408 19.4853 65.2353 20.2574C64.8342 21.0253 64.2583 21.6249 63.5077 22.0562C62.7615 22.4833 61.8664 22.6968 60.8225 22.6968ZM60.8419 20.3092C61.2215 20.3092 61.5429 20.1927 61.806 19.9598C62.0691 19.7269 62.2697 19.4033 62.4077 18.9892C62.5501 18.5751 62.6213 18.0963 62.6213 17.5528C62.6213 17.0006 62.5501 16.5175 62.4077 16.1034C62.2697 15.6893 62.0691 15.3658 61.806 15.1328C61.5429 14.8999 61.2215 14.7834 60.8419 14.7834C60.4493 14.7834 60.1172 14.8999 59.8454 15.1328C59.578 15.3658 59.3731 15.6893 59.2307 16.1034C59.0927 16.5175 59.0237 17.0006 59.0237 17.5528C59.0237 18.0963 59.0927 18.5751 59.2307 18.9892C59.3731 19.4033 59.578 19.7269 59.8454 19.9598C60.1172 20.1927 60.4493 20.3092 60.8419 20.3092ZM71.0944 22.6515C70.361 22.6515 69.6946 22.4617 69.095 22.0821C68.4954 21.7025 68.0166 21.1331 67.6585 20.3739C67.3005 19.6147 67.1215 18.6722 67.1215 17.5463C67.1215 16.3773 67.307 15.4154 67.6779 14.6605C68.0489 13.9056 68.5342 13.347 69.1338 12.9846C69.7377 12.6223 70.3869 12.4411 71.0814 12.4411C71.6034 12.4411 72.0498 12.5317 72.4208 12.7129C72.7918 12.8897 73.098 13.1183 73.3396 13.3987C73.5812 13.6791 73.7645 13.9703 73.8896 14.2722H73.9543V9.25762H77.1184V22.5092H73.9867V20.898H73.8896C73.7559 21.2043 73.5661 21.4911 73.3202 21.7586C73.0743 22.026 72.7659 22.2417 72.3949 22.4056C72.0283 22.5695 71.5947 22.6515 71.0944 22.6515ZM72.1943 20.1863C72.5783 20.1863 72.9061 20.0784 73.1779 19.8627C73.4496 19.6427 73.6588 19.3343 73.8055 18.9375C73.9522 18.5406 74.0255 18.0747 74.0255 17.5398C74.0255 16.9963 73.9522 16.5283 73.8055 16.1357C73.6631 15.7432 73.4539 15.4412 73.1779 15.2299C72.9061 15.0185 72.5783 14.9128 72.1943 14.9128C71.8018 14.9128 71.4696 15.0207 71.1979 15.2363C70.9261 15.452 70.7191 15.7561 70.5767 16.1487C70.4387 16.5412 70.3697 17.0049 70.3697 17.5398C70.3697 18.0747 70.4408 18.5406 70.5832 18.9375C70.7255 19.3343 70.9304 19.6427 71.1979 19.8627C71.4696 20.0784 71.8018 20.1863 72.1943 20.1863ZM83.7652 22.6968C82.7256 22.6968 81.8283 22.4919 81.0735 22.0821C80.3229 21.668 79.7448 21.0792 79.3394 20.3157C78.9382 19.5478 78.7376 18.6355 78.7376 17.5787C78.7376 16.552 78.9404 15.6548 79.3458 14.8869C79.7513 14.1148 80.3229 13.5152 81.0605 13.0881C81.7981 12.6568 82.6673 12.4411 83.6681 12.4411C84.3756 12.4411 85.0226 12.5511 85.6093 12.7711C86.1959 12.9911 86.7028 13.3168 87.1298 13.7481C87.5569 14.1795 87.889 14.7122 88.1263 15.3463C88.3635 15.9761 88.4821 16.6987 88.4821 17.5139V18.3033H79.8441V16.4657H85.5381C85.5338 16.1293 85.454 15.8295 85.2987 15.5663C85.1434 15.3032 84.9299 15.0983 84.6581 14.9516C84.3906 14.8007 84.0822 14.7252 83.7328 14.7252C83.3791 14.7252 83.062 14.805 82.7817 14.9646C82.5013 15.1199 82.2791 15.3334 82.1152 15.6052C81.9513 15.8726 81.865 16.1767 81.8564 16.5175V18.3875C81.8564 18.7929 81.9362 19.1488 82.0958 19.4551C82.2554 19.757 82.4819 19.9921 82.7752 20.1604C83.0685 20.3286 83.4179 20.4127 83.8234 20.4127C84.1038 20.4127 84.3583 20.3739 84.5869 20.2963C84.8155 20.2186 85.0118 20.1043 85.1757 19.9533C85.3397 19.8023 85.4626 19.6169 85.5445 19.3969L88.4498 19.481C88.329 20.1323 88.0637 20.6996 87.6539 21.1827C87.2484 21.6615 86.7157 22.0347 86.0557 22.3021C85.3957 22.5652 84.6322 22.6968 83.7652 22.6968ZM101.176 13.2305C101.132 12.756 100.941 12.3872 100.6 12.124C100.263 11.8566 99.7823 11.7229 99.1568 11.7229C98.7427 11.7229 98.3976 11.7768 98.1215 11.8846C97.8455 11.9925 97.6384 12.1413 97.5004 12.3311C97.3623 12.5166 97.2912 12.7301 97.2868 12.9717C97.2782 13.1701 97.317 13.3448 97.4033 13.4958C97.4939 13.6468 97.6233 13.7805 97.7915 13.897C97.9641 14.0091 98.1711 14.1083 98.4127 14.1946C98.6543 14.2809 98.926 14.3564 99.228 14.4211L100.367 14.6799C101.022 14.8222 101.6 15.012 102.101 15.2493C102.606 15.4865 103.028 15.7691 103.369 16.0969C103.714 16.4248 103.975 16.8022 104.152 17.2292C104.329 17.6563 104.419 18.1351 104.424 18.6657C104.419 19.5025 104.208 20.2208 103.79 20.8204C103.371 21.42 102.769 21.8794 101.984 22.1986C101.204 22.5178 100.261 22.6774 99.1568 22.6774C98.0482 22.6774 97.0819 22.5113 96.258 22.1792C95.4341 21.847 94.7936 21.3423 94.3363 20.6651C93.8791 19.9878 93.644 19.1316 93.631 18.0963H96.698C96.7239 18.5233 96.8382 18.8792 97.041 19.1639C97.2437 19.4486 97.5219 19.6643 97.8757 19.811C98.2337 19.9576 98.6478 20.031 99.118 20.031C99.5494 20.031 99.916 19.9727 100.218 19.8563C100.524 19.7398 100.759 19.578 100.923 19.371C101.087 19.1639 101.171 18.9267 101.176 18.6592C101.171 18.409 101.094 18.1955 100.943 18.0186C100.792 17.8375 100.559 17.6822 100.244 17.5528C99.9333 17.419 99.5364 17.2961 99.0533 17.184L97.6686 16.8604C96.5212 16.5973 95.6175 16.1724 94.9575 15.5857C94.2975 14.9948 93.9696 14.1968 93.974 13.1917C93.9696 12.3721 94.1896 11.6539 94.634 11.037C95.0783 10.4201 95.693 9.93918 96.478 9.59409C97.2631 9.24899 98.1582 9.07645 99.1633 9.07645C100.19 9.07645 101.081 9.25115 101.836 9.60056C102.595 9.94565 103.184 10.4309 103.602 11.0564C104.02 11.6819 104.234 12.4066 104.243 13.2305H101.176ZM109.205 16.841V22.5092H106.041V9.25762H109.102V14.3952H109.212C109.436 13.7826 109.803 13.3038 110.312 12.9587C110.825 12.6136 111.453 12.4411 112.195 12.4411C112.894 12.4411 113.502 12.5964 114.019 12.907C114.537 13.2132 114.938 13.6468 115.223 14.2075C115.512 14.7683 115.654 15.424 115.65 16.1746V22.5092H112.486V16.7957C112.49 16.2436 112.352 15.8122 112.072 15.5016C111.791 15.191 111.397 15.0358 110.888 15.0358C110.556 15.0358 110.262 15.1091 110.008 15.2558C109.758 15.3981 109.561 15.603 109.419 15.8704C109.281 16.1379 109.21 16.4614 109.205 16.841ZM120.427 22.6774C119.793 22.6774 119.23 22.5717 118.738 22.3603C118.251 22.1447 117.865 21.8211 117.58 21.3898C117.299 20.9541 117.159 20.4084 117.159 19.7527C117.159 19.2006 117.256 18.7347 117.45 18.3551C117.645 17.9755 117.912 17.6671 118.253 17.4298C118.594 17.1926 118.986 17.0136 119.43 16.8928C119.875 16.7677 120.349 16.6836 120.854 16.6404C121.419 16.5887 121.874 16.5347 122.219 16.4787C122.564 16.4183 122.814 16.3342 122.97 16.2263C123.129 16.1142 123.209 15.9567 123.209 15.754V15.7216C123.209 15.3895 123.095 15.1328 122.866 14.9516C122.638 14.7705 122.329 14.6799 121.941 14.6799C121.523 14.6799 121.186 14.7705 120.932 14.9516C120.677 15.1328 120.515 15.383 120.446 15.7022L117.528 15.5987C117.614 14.9948 117.837 14.4556 118.195 13.9811C118.557 13.5023 119.053 13.127 119.683 12.8552C120.317 12.5791 121.078 12.4411 121.967 12.4411C122.601 12.4411 123.185 12.5166 123.72 12.6676C124.255 12.8142 124.721 13.0299 125.118 13.3146C125.515 13.595 125.821 13.9401 126.037 14.3499C126.257 14.7597 126.367 15.2277 126.367 15.754V22.5092H123.39V21.1245H123.313C123.136 21.4609 122.909 21.7456 122.633 21.9786C122.362 22.2115 122.04 22.3862 121.669 22.5027C121.303 22.6192 120.888 22.6774 120.427 22.6774ZM121.404 20.6068C121.745 20.6068 122.051 20.5378 122.323 20.3998C122.599 20.2617 122.819 20.0719 122.983 19.8304C123.147 19.5845 123.229 19.2998 123.229 18.9763V18.0316C123.138 18.079 123.028 18.1222 122.899 18.161C122.774 18.1998 122.635 18.2365 122.484 18.271C122.334 18.3055 122.178 18.3357 122.019 18.3616C121.859 18.3875 121.706 18.4112 121.559 18.4328C121.262 18.4802 121.007 18.5535 120.796 18.6528C120.589 18.752 120.429 18.8814 120.317 19.041C120.209 19.1963 120.155 19.3818 120.155 19.5974C120.155 19.9253 120.272 20.1755 120.505 20.348C120.742 20.5206 121.042 20.6068 121.404 20.6068ZM128.301 26.2361V12.5705H131.433V14.2722H131.53C131.66 13.9703 131.843 13.6791 132.08 13.3987C132.322 13.1183 132.628 12.8897 132.999 12.7129C133.374 12.5317 133.823 12.4411 134.345 12.4411C135.035 12.4411 135.68 12.6223 136.28 12.9846C136.883 13.347 137.371 13.9056 137.742 14.6605C138.113 15.4154 138.298 16.3773 138.298 17.5463C138.298 18.6722 138.119 19.6147 137.761 20.3739C137.408 21.1331 136.929 21.7025 136.325 22.0821C135.725 22.4617 135.059 22.6515 134.325 22.6515C133.825 22.6515 133.392 22.5695 133.025 22.4056C132.658 22.2417 132.35 22.026 132.1 21.7586C131.854 21.4911 131.664 21.2043 131.53 20.898H131.466V26.2361H128.301ZM131.401 17.5398C131.401 18.0747 131.472 18.5406 131.614 18.9375C131.761 19.3343 131.97 19.6427 132.242 19.8627C132.518 20.0784 132.848 20.1863 133.232 20.1863C133.62 20.1863 133.95 20.0784 134.222 19.8627C134.494 19.6427 134.699 19.3343 134.837 18.9375C134.979 18.5406 135.05 18.0747 135.05 17.5398C135.05 17.0049 134.979 16.5412 134.837 16.1487C134.699 15.7561 134.494 15.452 134.222 15.2363C133.954 15.0207 133.624 14.9128 133.232 14.9128C132.844 14.9128 132.514 15.0185 132.242 15.2299C131.97 15.4412 131.761 15.7432 131.614 16.1357C131.472 16.5283 131.401 16.9963 131.401 17.5398ZM144.602 22.6968C143.563 22.6968 142.665 22.4919 141.91 22.0821C141.16 21.668 140.582 21.0792 140.176 20.3157C139.775 19.5478 139.575 18.6355 139.575 17.5787C139.575 16.552 139.777 15.6548 140.183 14.8869C140.588 14.1148 141.16 13.5152 141.898 13.0881C142.635 12.6568 143.504 12.4411 144.505 12.4411C145.213 12.4411 145.86 12.5511 146.446 12.7711C147.033 12.9911 147.54 13.3168 147.967 13.7481C148.394 14.1795 148.726 14.7122 148.963 15.3463C149.201 15.9761 149.319 16.6987 149.319 17.5139V18.3033H140.681V16.4657H146.375C146.371 16.1293 146.291 15.8295 146.136 15.5663C145.98 15.3032 145.767 15.0983 145.495 14.9516C145.228 14.8007 144.919 14.7252 144.57 14.7252C144.216 14.7252 143.899 14.805 143.619 14.9646C143.338 15.1199 143.116 15.3334 142.952 15.6052C142.788 15.8726 142.702 16.1767 142.693 16.5175V18.3875C142.693 18.7929 142.773 19.1488 142.933 19.4551C143.092 19.757 143.319 19.9921 143.612 20.1604C143.906 20.3286 144.255 20.4127 144.66 20.4127C144.941 20.4127 145.195 20.3739 145.424 20.2963C145.653 20.2186 145.849 20.1043 146.013 19.9533C146.177 19.8023 146.3 19.6169 146.382 19.3969L149.287 19.481C149.166 20.1323 148.901 20.6996 148.491 21.1827C148.085 21.6615 147.553 22.0347 146.893 22.3021C146.233 22.5652 145.469 22.6968 144.602 22.6968ZM150.935 22.5092V12.5705H154.009V14.3822H154.112C154.293 13.7266 154.589 13.2391 154.999 12.9199C155.408 12.5964 155.885 12.4346 156.429 12.4346C156.575 12.4346 156.726 12.4454 156.882 12.467C157.037 12.4842 157.181 12.5123 157.315 12.5511V15.301C157.164 15.2493 156.966 15.2083 156.72 15.1781C156.478 15.1479 156.263 15.1328 156.073 15.1328C155.697 15.1328 155.359 15.2169 155.057 15.3852C154.759 15.5491 154.524 15.7799 154.352 16.0775C154.183 16.3708 154.099 16.7159 154.099 17.1128V22.5092H150.935Z" fill="#193A71"/>
<rect x="4.68262" width="14.5399" height="1.93252" rx="0.966258" fill="#193A71"/>
<rect x="1.18579" y="28.1594" width="20.8896" height="1.84049" rx="0.920245" fill="#193A71"/>
<rect x="6.79932" y="3.03687" width="6.90184" height="1.47239" rx="0.736196" fill="#193A71"/>
<path d="M2.98657 24.2944H10.296C10.8042 24.2944 11.2162 24.7064 11.2162 25.2147C11.2162 25.7229 10.8042 26.1349 10.296 26.1349H5.06144C4.29953 25.604 3.60307 24.9856 2.98657 24.2944Z" fill="#193A71"/>
<path d="M1.63866 22.454C1.29253 21.871 0.99509 21.2556 0.751953 20.6135H9.65182C10.1601 20.6135 10.5721 21.0255 10.5721 21.5338C10.5721 22.042 10.1601 22.454 9.65182 22.454H1.63866Z" fill="#193A71"/>
<path d="M0.222198 18.773C0.10173 18.1746 0.0264211 17.5599 0 16.9325H14.0691C14.5774 16.9325 14.9894 17.3445 14.9894 17.8527C14.9894 18.361 14.5774 18.773 14.0691 18.773H0.222198Z" fill="#193A71"/>
<path d="M0.0856934 14.908C0.600343 10.893 3.1285 7.50792 6.6253 5.79761H11.4922C14.999 5.79761 17.8419 8.64046 17.8419 12.1473V12.5154C17.8419 13.8368 16.7706 14.908 15.4492 14.908H0.0856934Z" fill="#193A71"/>
<path d="M5.20717 1.36648C4.72836 0.276129 7.21158 0.594071 7.21158 0.594071C7.21158 0.594071 8.52363 2.38247 8.86937 3.49696C9.18186 4.50428 8.68531 5.93564 8.68531 5.93564L6.52273 5.93564C6.52273 5.93564 7.81119 3.49696 5.20717 1.36648Z" fill="#193A71"/>
<path d="M18.34 5.4098C20.2186 6.35814 21.8101 7.79064 22.9503 9.55945C24.0904 11.3283 24.7379 13.3693 24.8259 15.4719C24.9138 17.5745 24.4391 19.6624 23.4507 21.5203C22.4622 23.3781 20.9959 24.9386 19.2031 26.0405L19.1986 26.0333C19.0995 26.0911 18.9906 26.13 18.8772 26.1482C18.7566 26.1675 18.6334 26.1629 18.5146 26.1346C18.3958 26.1063 18.2837 26.0549 18.1848 25.9832C18.0858 25.9116 18.002 25.8212 17.938 25.7172C17.874 25.6132 17.8311 25.4976 17.8118 25.377C17.7925 25.2564 17.7971 25.1332 17.8254 25.0144C17.8537 24.8956 17.9051 24.7835 17.9768 24.6846C18.0442 24.5914 18.1284 24.5115 18.2249 24.4491L18.2232 24.4463C19.7324 23.5187 20.9666 22.2052 21.7986 20.6414C22.6307 19.0775 23.0303 17.3199 22.9562 15.5501C22.8822 13.7802 22.3372 12.0622 21.3774 10.5733C20.4177 9.08437 19.0001 7.99993 17.4967 7.08029C17.4967 7.08029 16.6835 6.64 17.0902 5.81994C17.341 5.31418 17.7579 5.27628 18.0405 5.32151C18.1397 5.33338 18.2364 5.36115 18.3267 5.40377C18.3354 5.40757 18.34 5.4098 18.34 5.4098Z" fill="#193A71"/>
</svg>
