<svg width="159" height="30" viewBox="0 0 159 30" fill="none" xmlns="http://www.w3.org/2000/svg">
<path d="M54.3504 14.0586H51.1151C51.072 13.7264 50.9836 13.4266 50.8499 13.1592C50.7161 12.8917 50.5393 12.6631 50.3193 12.4733C50.0993 12.2835 49.8383 12.139 49.5364 12.0398C49.2387 11.9363 48.9087 11.8845 48.5464 11.8845C47.9036 11.8845 47.3493 12.042 46.8835 12.3569C46.4219 12.6718 46.066 13.1268 45.8158 13.7221C45.57 14.3174 45.447 15.0378 45.447 15.8833C45.447 16.7633 45.5721 17.5009 45.8223 18.0962C46.0768 18.6871 46.4327 19.1336 46.8899 19.4356C47.3515 19.7332 47.8972 19.882 48.527 19.882C48.8807 19.882 49.202 19.8367 49.4911 19.7461C49.7844 19.6556 50.041 19.524 50.261 19.3514C50.4854 19.1746 50.6687 18.9611 50.811 18.7109C50.9577 18.4564 51.0591 18.1695 51.1151 17.8503L54.3504 17.8697C54.2943 18.4564 54.1239 19.0344 53.8392 19.6038C53.5588 20.1732 53.1728 20.693 52.681 21.1632C52.1892 21.629 51.5897 22 50.8822 22.2761C50.1791 22.5522 49.3724 22.6902 48.4623 22.6902C47.2631 22.6902 46.189 22.4271 45.24 21.9008C44.2953 21.3702 43.549 20.5981 43.0012 19.5844C42.4533 18.5707 42.1794 17.337 42.1794 15.8833C42.1794 14.4253 42.4577 13.1894 43.0141 12.1757C43.5706 11.162 44.3233 10.392 45.2723 9.86572C46.2213 9.33946 47.2846 9.07633 48.4623 9.07633C49.2646 9.07633 50.0065 9.18848 50.6881 9.41279C51.3697 9.63279 51.9693 9.95631 52.4869 10.3834C53.0045 10.8061 53.4251 11.3259 53.7486 11.9427C54.0722 12.5596 54.2727 13.2649 54.3504 14.0586ZM60.8225 22.6967C59.7786 22.6967 58.8813 22.4832 58.1308 22.0561C57.3845 21.6247 56.8086 21.0251 56.4031 20.2573C56.002 19.4852 55.8014 18.5901 55.8014 17.5721C55.8014 16.5497 56.002 15.6546 56.4031 14.8868C56.8086 14.1147 57.3845 13.5151 58.1308 13.088C58.8813 12.6567 59.7786 12.441 60.8225 12.441C61.8664 12.441 62.7615 12.6567 63.5077 13.088C64.2583 13.5151 64.8342 14.1147 65.2353 14.8868C65.6408 15.6546 65.8436 16.5497 65.8436 17.5721C65.8436 18.5901 65.6408 19.4852 65.2353 20.2573C64.8342 21.0251 64.2583 21.6247 63.5077 22.0561C62.7615 22.4832 61.8664 22.6967 60.8225 22.6967ZM60.8419 20.3091C61.2215 20.3091 61.5429 20.1926 61.806 19.9597C62.0691 19.7267 62.2697 19.4032 62.4077 18.9891C62.5501 18.575 62.6213 18.0962 62.6213 17.5526C62.6213 17.0005 62.5501 16.5174 62.4077 16.1033C62.2697 15.6892 62.0691 15.3656 61.806 15.1327C61.5429 14.8998 61.2215 14.7833 60.8419 14.7833C60.4493 14.7833 60.1172 14.8998 59.8454 15.1327C59.578 15.3656 59.3731 15.6892 59.2307 16.1033C59.0927 16.5174 59.0237 17.0005 59.0237 17.5526C59.0237 18.0962 59.0927 18.575 59.2307 18.9891C59.3731 19.4032 59.578 19.7267 59.8454 19.9597C60.1172 20.1926 60.4493 20.3091 60.8419 20.3091ZM71.0944 22.6514C70.361 22.6514 69.6946 22.4616 69.095 22.082C68.4954 21.7024 68.0166 21.133 67.6585 20.3738C67.3005 19.6146 67.1215 18.672 67.1215 17.5462C67.1215 16.3772 67.307 15.4152 67.6779 14.6603C68.0489 13.9055 68.5342 13.3468 69.1338 12.9845C69.7377 12.6221 70.3869 12.441 71.0814 12.441C71.6034 12.441 72.0498 12.5316 72.4208 12.7127C72.7918 12.8896 73.098 13.1182 73.3396 13.3986C73.5812 13.679 73.7645 13.9702 73.8896 14.2721H73.9543V9.2575H77.1184V22.509H73.9867V20.8979H73.8896C73.7559 21.2042 73.5661 21.491 73.3202 21.7585C73.0743 22.0259 72.7659 22.2416 72.3949 22.4055C72.0283 22.5694 71.5947 22.6514 71.0944 22.6514ZM72.1943 20.1861C72.5783 20.1861 72.9061 20.0783 73.1779 19.8626C73.4496 19.6426 73.6588 19.3342 73.8055 18.9373C73.9522 18.5405 74.0255 18.0746 74.0255 17.5397C74.0255 16.9962 73.9522 16.5282 73.8055 16.1356C73.6631 15.7431 73.4539 15.4411 73.1779 15.2297C72.9061 15.0184 72.5783 14.9127 72.1943 14.9127C71.8018 14.9127 71.4696 15.0205 71.1979 15.2362C70.9261 15.4519 70.7191 15.756 70.5767 16.1486C70.4387 16.5411 70.3697 17.0048 70.3697 17.5397C70.3697 18.0746 70.4408 18.5405 70.5832 18.9373C70.7255 19.3342 70.9304 19.6426 71.1979 19.8626C71.4696 20.0783 71.8018 20.1861 72.1943 20.1861ZM83.7652 22.6967C82.7256 22.6967 81.8283 22.4918 81.0735 22.082C80.3229 21.6679 79.7448 21.0791 79.3394 20.3155C78.9382 19.5477 78.7376 18.6354 78.7376 17.5785C78.7376 16.5519 78.9404 15.6546 79.3458 14.8868C79.7513 14.1147 80.3229 13.5151 81.0605 13.088C81.7981 12.6567 82.6673 12.441 83.6681 12.441C84.3756 12.441 85.0226 12.551 85.6093 12.771C86.1959 12.991 86.7028 13.3166 87.1298 13.748C87.5569 14.1794 87.889 14.7121 88.1263 15.3462C88.3635 15.976 88.4821 16.6985 88.4821 17.5138V18.3032H79.8441V16.4656H85.5381C85.5338 16.1291 85.454 15.8293 85.2987 15.5662C85.1434 15.3031 84.9299 15.0982 84.6581 14.9515C84.3906 14.8005 84.0822 14.7251 83.7328 14.7251C83.3791 14.7251 83.062 14.8049 82.7817 14.9645C82.5013 15.1198 82.2791 15.3333 82.1152 15.605C81.9513 15.8725 81.865 16.1766 81.8564 16.5174V18.3873C81.8564 18.7928 81.9362 19.1487 82.0958 19.455C82.2554 19.7569 82.4819 19.992 82.7752 20.1603C83.0685 20.3285 83.4179 20.4126 83.8234 20.4126C84.1038 20.4126 84.3583 20.3738 84.5869 20.2961C84.8155 20.2185 85.0118 20.1042 85.1757 19.9532C85.3397 19.8022 85.4626 19.6167 85.5445 19.3967L88.4498 19.4809C88.329 20.1322 88.0637 20.6995 87.6539 21.1826C87.2484 21.6614 86.7157 22.0345 86.0557 22.302C85.3957 22.5651 84.6322 22.6967 83.7652 22.6967ZM101.176 13.2304C101.132 12.7559 100.941 12.3871 100.6 12.1239C100.263 11.8565 99.7823 11.7228 99.1568 11.7228C98.7427 11.7228 98.3976 11.7767 98.1215 11.8845C97.8455 11.9924 97.6384 12.1412 97.5004 12.331C97.3623 12.5165 97.2912 12.73 97.2868 12.9716C97.2782 13.17 97.317 13.3447 97.4033 13.4957C97.4939 13.6466 97.6233 13.7804 97.7915 13.8968C97.9641 14.009 98.1711 14.1082 98.4127 14.1945C98.6543 14.2807 98.926 14.3562 99.228 14.4209L100.367 14.6798C101.022 14.8221 101.6 15.0119 102.101 15.2492C102.606 15.4864 103.028 15.769 103.369 16.0968C103.714 16.4246 103.975 16.8021 104.152 17.2291C104.329 17.6562 104.419 18.135 104.424 18.6656C104.419 19.5024 104.208 20.2206 103.79 20.8202C103.371 21.4198 102.769 21.8792 101.984 22.1985C101.204 22.5177 100.261 22.6773 99.1568 22.6773C98.0482 22.6773 97.0819 22.5112 96.258 22.179C95.4341 21.8469 94.7936 21.3422 94.3363 20.6649C93.8791 19.9877 93.644 19.1314 93.631 18.0962H96.698C96.7239 18.5232 96.8382 18.8791 97.041 19.1638C97.2437 19.4485 97.5219 19.6642 97.8757 19.8108C98.2337 19.9575 98.6478 20.0308 99.118 20.0308C99.5494 20.0308 99.916 19.9726 100.218 19.8561C100.524 19.7397 100.759 19.5779 100.923 19.3709C101.087 19.1638 101.171 18.9265 101.176 18.6591C101.171 18.4089 101.094 18.1954 100.943 18.0185C100.792 17.8373 100.559 17.6821 100.244 17.5526C99.9333 17.4189 99.5364 17.296 99.0533 17.1838L97.6686 16.8603C96.5212 16.5972 95.6175 16.1723 94.9575 15.5856C94.2975 14.9947 93.9696 14.1966 93.974 13.1915C93.9696 12.372 94.1896 11.6537 94.634 11.0369C95.0783 10.42 95.693 9.93906 96.478 9.59396C97.2631 9.24887 98.1582 9.07633 99.1633 9.07633C100.19 9.07633 101.081 9.25103 101.836 9.60043C102.595 9.94553 103.184 10.4308 103.602 11.0563C104.02 11.6818 104.234 12.4065 104.243 13.2304H101.176ZM109.205 16.8409V22.509H106.041V9.2575H109.102V14.3951H109.212C109.436 13.7825 109.803 13.3037 110.312 12.9586C110.825 12.6135 111.453 12.441 112.195 12.441C112.894 12.441 113.502 12.5963 114.019 12.9068C114.537 13.2131 114.938 13.6466 115.223 14.2074C115.512 14.7682 115.654 15.4239 115.65 16.1744V22.509H112.486V16.7956C112.49 16.2435 112.352 15.8121 112.072 15.5015C111.791 15.1909 111.397 15.0356 110.888 15.0356C110.556 15.0356 110.262 15.109 110.008 15.2556C109.758 15.398 109.561 15.6029 109.419 15.8703C109.281 16.1378 109.21 16.4613 109.205 16.8409ZM120.427 22.6773C119.793 22.6773 119.23 22.5716 118.738 22.3602C118.251 22.1445 117.865 21.821 117.58 21.3896C117.299 20.954 117.159 20.4083 117.159 19.7526C117.159 19.2005 117.256 18.7346 117.45 18.355C117.645 17.9754 117.912 17.667 118.253 17.4297C118.594 17.1925 118.986 17.0134 119.43 16.8927C119.875 16.7676 120.349 16.6834 120.854 16.6403C121.419 16.5885 121.874 16.5346 122.219 16.4785C122.564 16.4182 122.814 16.334 122.97 16.2262C123.129 16.114 123.209 15.9566 123.209 15.7539V15.7215C123.209 15.3894 123.095 15.1327 122.866 14.9515C122.638 14.7703 122.329 14.6798 121.941 14.6798C121.523 14.6798 121.186 14.7703 120.932 14.9515C120.677 15.1327 120.515 15.3829 120.446 15.7021L117.528 15.5986C117.614 14.9947 117.837 14.4554 118.195 13.9809C118.557 13.5021 119.053 13.1268 119.683 12.8551C120.317 12.579 121.078 12.441 121.967 12.441C122.601 12.441 123.185 12.5165 123.72 12.6674C124.255 12.8141 124.721 13.0298 125.118 13.3145C125.515 13.5949 125.821 13.94 126.037 14.3498C126.257 14.7596 126.367 15.2276 126.367 15.7539V22.509H123.39V21.1244H123.313C123.136 21.4608 122.909 21.7455 122.633 21.9785C122.362 22.2114 122.04 22.3861 121.669 22.5026C121.303 22.619 120.888 22.6773 120.427 22.6773ZM121.404 20.6067C121.745 20.6067 122.051 20.5377 122.323 20.3997C122.599 20.2616 122.819 20.0718 122.983 19.8303C123.147 19.5844 123.229 19.2997 123.229 18.9762V18.0315C123.138 18.0789 123.028 18.1221 122.899 18.1609C122.774 18.1997 122.635 18.2364 122.484 18.2709C122.334 18.3054 122.178 18.3356 122.019 18.3615C121.859 18.3873 121.706 18.4111 121.559 18.4326C121.262 18.4801 121.007 18.5534 120.796 18.6526C120.589 18.7518 120.429 18.8813 120.317 19.0409C120.209 19.1961 120.155 19.3816 120.155 19.5973C120.155 19.9252 120.272 20.1753 120.505 20.3479C120.742 20.5204 121.042 20.6067 121.404 20.6067ZM128.301 26.236V12.5704H131.433V14.2721H131.53C131.66 13.9702 131.843 13.679 132.08 13.3986C132.322 13.1182 132.628 12.8896 132.999 12.7127C133.374 12.5316 133.823 12.441 134.345 12.441C135.035 12.441 135.68 12.6221 136.28 12.9845C136.883 13.3468 137.371 13.9055 137.742 14.6603C138.113 15.4152 138.298 16.3772 138.298 17.5462C138.298 18.672 138.119 19.6146 137.761 20.3738C137.408 21.133 136.929 21.7024 136.325 22.082C135.725 22.4616 135.059 22.6514 134.325 22.6514C133.825 22.6514 133.392 22.5694 133.025 22.4055C132.658 22.2416 132.35 22.0259 132.1 21.7585C131.854 21.491 131.664 21.2042 131.53 20.8979H131.466V26.236H128.301ZM131.401 17.5397C131.401 18.0746 131.472 18.5405 131.614 18.9373C131.761 19.3342 131.97 19.6426 132.242 19.8626C132.518 20.0783 132.848 20.1861 133.232 20.1861C133.62 20.1861 133.95 20.0783 134.222 19.8626C134.494 19.6426 134.699 19.3342 134.837 18.9373C134.979 18.5405 135.05 18.0746 135.05 17.5397C135.05 17.0048 134.979 16.5411 134.837 16.1486C134.699 15.756 134.494 15.4519 134.222 15.2362C133.954 15.0205 133.624 14.9127 133.232 14.9127C132.844 14.9127 132.514 15.0184 132.242 15.2297C131.97 15.4411 131.761 15.7431 131.614 16.1356C131.472 16.5282 131.401 16.9962 131.401 17.5397ZM144.602 22.6967C143.563 22.6967 142.665 22.4918 141.91 22.082C141.16 21.6679 140.582 21.0791 140.176 20.3155C139.775 19.5477 139.575 18.6354 139.575 17.5785C139.575 16.5519 139.777 15.6546 140.183 14.8868C140.588 14.1147 141.16 13.5151 141.898 13.088C142.635 12.6567 143.504 12.441 144.505 12.441C145.213 12.441 145.86 12.551 146.446 12.771C147.033 12.991 147.54 13.3166 147.967 13.748C148.394 14.1794 148.726 14.7121 148.963 15.3462C149.201 15.976 149.319 16.6985 149.319 17.5138V18.3032H140.681V16.4656H146.375C146.371 16.1291 146.291 15.8293 146.136 15.5662C145.98 15.3031 145.767 15.0982 145.495 14.9515C145.228 14.8005 144.919 14.7251 144.57 14.7251C144.216 14.7251 143.899 14.8049 143.619 14.9645C143.338 15.1198 143.116 15.3333 142.952 15.605C142.788 15.8725 142.702 16.1766 142.693 16.5174V18.3873C142.693 18.7928 142.773 19.1487 142.933 19.455C143.092 19.7569 143.319 19.992 143.612 20.1603C143.906 20.3285 144.255 20.4126 144.66 20.4126C144.941 20.4126 145.195 20.3738 145.424 20.2961C145.653 20.2185 145.849 20.1042 146.013 19.9532C146.177 19.8022 146.3 19.6167 146.382 19.3967L149.287 19.4809C149.166 20.1322 148.901 20.6995 148.491 21.1826C148.085 21.6614 147.553 22.0345 146.893 22.302C146.233 22.5651 145.469 22.6967 144.602 22.6967ZM150.935 22.509V12.5704H154.009V14.3821H154.112C154.293 13.7264 154.589 13.239 154.999 12.9198C155.408 12.5963 155.885 12.4345 156.429 12.4345C156.575 12.4345 156.726 12.4453 156.882 12.4669C157.037 12.4841 157.181 12.5121 157.315 12.551V15.3009C157.164 15.2492 156.966 15.2082 156.72 15.178C156.478 15.1478 156.263 15.1327 156.073 15.1327C155.697 15.1327 155.359 15.2168 155.057 15.385C154.759 15.549 154.524 15.7797 154.352 16.0774C154.183 16.3707 154.099 16.7158 154.099 17.1127V22.509H150.935Z" fill="#F2F2F3"/>
<rect x="4.68262" width="14.5399" height="1.93252" rx="0.966258" fill="#F2F2F3"/>
<rect x="1.18579" y="28.1594" width="20.8896" height="1.84049" rx="0.920245" fill="#F2F2F3"/>
<rect x="6.79932" y="3.03687" width="6.90184" height="1.47239" rx="0.736196" fill="#F2F2F3"/>
<path d="M2.98657 24.2944H10.296C10.8042 24.2944 11.2162 24.7064 11.2162 25.2147C11.2162 25.7229 10.8042 26.1349 10.296 26.1349H5.06144C4.29953 25.604 3.60307 24.9856 2.98657 24.2944Z" fill="#F2F2F3"/>
<path d="M1.63866 22.454C1.29253 21.871 0.99509 21.2556 0.751953 20.6135H9.65182C10.1601 20.6135 10.5721 21.0255 10.5721 21.5338C10.5721 22.042 10.1601 22.454 9.65182 22.454H1.63866Z" fill="#F2F2F3"/>
<path d="M0.222198 18.773C0.10173 18.1746 0.0264211 17.5599 0 16.9325H14.0691C14.5774 16.9325 14.9894 17.3445 14.9894 17.8527C14.9894 18.361 14.5774 18.773 14.0691 18.773H0.222198Z" fill="#F2F2F3"/>
<path d="M0.0856934 14.908C0.600343 10.893 3.1285 7.50792 6.6253 5.79761H11.4922C14.999 5.79761 17.8419 8.64046 17.8419 12.1473V12.5154C17.8419 13.8368 16.7706 14.908 15.4492 14.908H0.0856934Z" fill="#F2F2F3"/>
<path d="M5.20717 1.36648C4.72836 0.276129 7.21158 0.594071 7.21158 0.594071C7.21158 0.594071 8.52363 2.38247 8.86937 3.49696C9.18186 4.50428 8.68531 5.93564 8.68531 5.93564L6.52273 5.93564C6.52273 5.93564 7.81119 3.49696 5.20717 1.36648Z" fill="#F2F2F3"/>
<path d="M18.34 5.4098C20.2186 6.35814 21.8101 7.79064 22.9503 9.55945C24.0904 11.3283 24.7379 13.3693 24.8259 15.4719C24.9138 17.5745 24.4391 19.6624 23.4507 21.5203C22.4622 23.3781 20.9959 24.9386 19.2031 26.0405L19.1986 26.0333C19.0995 26.0911 18.9906 26.13 18.8772 26.1482C18.7566 26.1675 18.6334 26.1629 18.5146 26.1346C18.3958 26.1063 18.2837 26.0549 18.1848 25.9832C18.0858 25.9116 18.002 25.8212 17.938 25.7172C17.874 25.6132 17.8311 25.4976 17.8118 25.377C17.7925 25.2564 17.7971 25.1332 17.8254 25.0144C17.8537 24.8956 17.9051 24.7835 17.9768 24.6846C18.0442 24.5914 18.1284 24.5115 18.2249 24.4491L18.2232 24.4463C19.7324 23.5187 20.9666 22.2052 21.7986 20.6414C22.6307 19.0775 23.0303 17.3199 22.9562 15.5501C22.8822 13.7802 22.3372 12.0622 21.3774 10.5733C20.4177 9.08437 19.0001 7.99993 17.4967 7.08029C17.4967 7.08029 16.6835 6.64 17.0902 5.81994C17.341 5.31418 17.7579 5.27628 18.0405 5.32151C18.1397 5.33338 18.2364 5.36115 18.3267 5.40377C18.3354 5.40757 18.34 5.4098 18.34 5.4098Z" fill="#F2F2F3"/>
</svg>
