<svg width="195" height="30" viewBox="0 0 195 30" fill="none" xmlns="http://www.w3.org/2000/svg">
<path d="M52.2955 23.2557C50.9886 23.2557 49.8665 22.9688 48.929 22.3949C47.9972 21.821 47.2784 21.0284 46.7727 20.017C46.2727 19 46.0227 17.8295 46.0227 16.5057C46.0227 15.1761 46.2784 14.0028 46.7898 12.9858C47.3011 11.9631 48.0227 11.1676 48.9545 10.5994C49.892 10.0256 51 9.73864 52.2784 9.73864C53.3409 9.73864 54.2813 9.93466 55.0994 10.3267C55.9233 10.7131 56.5795 11.2614 57.0682 11.9716C57.5568 12.6761 57.8352 13.5 57.9034 14.4432H54.9545C54.8352 13.8125 54.5511 13.2869 54.1023 12.8665C53.6591 12.4403 53.0653 12.2273 52.321 12.2273C51.6903 12.2273 51.1364 12.3977 50.6591 12.7386C50.1818 13.0739 49.8097 13.5568 49.5426 14.1875C49.2813 14.8182 49.1506 15.5739 49.1506 16.4545C49.1506 17.3466 49.2813 18.1136 49.5426 18.7557C49.804 19.392 50.1705 19.8835 50.642 20.2301C51.1193 20.571 51.679 20.7415 52.321 20.7415C52.7756 20.7415 53.1818 20.6562 53.5398 20.4858C53.9034 20.3097 54.2074 20.0568 54.4517 19.7273C54.696 19.3977 54.8636 18.9972 54.9545 18.5256H57.9034C57.8295 19.4517 57.5568 20.2727 57.0852 20.9886C56.6136 21.6989 55.9716 22.2557 55.1591 22.6591C54.3466 23.0568 53.392 23.2557 52.2955 23.2557ZM66.147 23.2557C64.8686 23.2557 63.7607 22.9744 62.8232 22.4119C61.8857 21.8494 61.1584 21.0625 60.6413 20.0511C60.13 19.0398 59.8743 17.858 59.8743 16.5057C59.8743 15.1534 60.13 13.9687 60.6413 12.9517C61.1584 11.9347 61.8857 11.1449 62.8232 10.5824C63.7607 10.0199 64.8686 9.73864 66.147 9.73864C67.4254 9.73864 68.5334 10.0199 69.4709 10.5824C70.4084 11.1449 71.1328 11.9347 71.6442 12.9517C72.1612 13.9687 72.4197 15.1534 72.4197 16.5057C72.4197 17.858 72.1612 19.0398 71.6442 20.0511C71.1328 21.0625 70.4084 21.8494 69.4709 22.4119C68.5334 22.9744 67.4254 23.2557 66.147 23.2557ZM66.1641 20.7841C66.8572 20.7841 67.4368 20.5937 67.9027 20.2131C68.3686 19.8267 68.7152 19.3097 68.9425 18.6619C69.1754 18.0142 69.2919 17.2926 69.2919 16.4972C69.2919 15.696 69.1754 14.9716 68.9425 14.3239C68.7152 13.6705 68.3686 13.1506 67.9027 12.7642C67.4368 12.3778 66.8572 12.1847 66.1641 12.1847C65.4538 12.1847 64.8629 12.3778 64.3913 12.7642C63.9254 13.1506 63.576 13.6705 63.343 14.3239C63.1158 14.9716 63.0021 15.696 63.0021 16.4972C63.0021 17.2926 63.1158 18.0142 63.343 18.6619C63.576 19.3097 63.9254 19.8267 64.3913 20.2131C64.8629 20.5937 65.4538 20.7841 66.1641 20.7841ZM79.8963 23.2301C78.8679 23.2301 77.9474 22.9659 77.1349 22.4375C76.3224 21.9091 75.6804 21.142 75.2088 20.1364C74.7372 19.1307 74.5014 17.9091 74.5014 16.4716C74.5014 15.017 74.7401 13.7898 75.2173 12.7898C75.7003 11.7841 76.3509 11.0256 77.169 10.5142C77.9872 9.99716 78.8991 9.73864 79.9048 9.73864C80.6719 9.73864 81.3026 9.86932 81.7969 10.1307C82.2912 10.3864 82.6832 10.696 82.973 11.0597C83.2628 11.4176 83.4872 11.7557 83.6463 12.0739H83.7741V5.54545H86.8679V23H83.8338V20.9375H83.6463C83.4872 21.2557 83.2571 21.5937 82.956 21.9517C82.6548 22.304 82.2571 22.6051 81.7628 22.8551C81.2685 23.1051 80.6463 23.2301 79.8963 23.2301ZM80.7571 20.6989C81.4105 20.6989 81.9673 20.5227 82.4276 20.1705C82.8878 19.8125 83.2372 19.3153 83.4759 18.679C83.7145 18.0426 83.8338 17.3011 83.8338 16.4545C83.8338 15.608 83.7145 14.8722 83.4759 14.2472C83.2429 13.6222 82.8963 13.1364 82.4361 12.7898C81.9815 12.4432 81.4219 12.2699 80.7571 12.2699C80.0696 12.2699 79.4957 12.4489 79.0355 12.8068C78.5753 13.1648 78.2287 13.6591 77.9957 14.2898C77.7628 14.9205 77.6463 15.642 77.6463 16.4545C77.6463 17.2727 77.7628 18.0028 77.9957 18.6449C78.2344 19.2812 78.5838 19.7841 79.044 20.1534C79.5099 20.517 80.081 20.6989 80.7571 20.6989ZM95.951 23.2557C94.6385 23.2557 93.505 22.983 92.5504 22.4375C91.6016 21.8864 90.8714 21.108 90.3601 20.1023C89.8487 19.0909 89.593 17.9006 89.593 16.5312C89.593 15.1847 89.8487 14.0028 90.3601 12.9858C90.8771 11.9631 91.5987 11.1676 92.5249 10.5994C93.451 10.0256 94.5391 9.73864 95.7891 9.73864C96.5959 9.73864 97.3572 9.86932 98.0732 10.1307C98.7947 10.3864 99.4311 10.7841 99.9822 11.3239C100.539 11.8636 100.977 12.5511 101.295 13.3864C101.613 14.2159 101.772 15.2045 101.772 16.3523V17.2983H91.0419V15.2188H98.8146C98.8089 14.6278 98.6811 14.1023 98.4311 13.642C98.1811 13.1761 97.8317 12.8097 97.3828 12.5426C96.9396 12.2756 96.4226 12.142 95.8317 12.142C95.201 12.142 94.647 12.2955 94.1697 12.6023C93.6925 12.9034 93.3203 13.3011 93.0533 13.7955C92.7919 14.2841 92.6584 14.821 92.6527 15.4062V17.2216C92.6527 17.983 92.7919 18.6364 93.0703 19.1818C93.3487 19.7216 93.7379 20.1364 94.2379 20.4261C94.7379 20.7102 95.3232 20.8523 95.9936 20.8523C96.4425 20.8523 96.8487 20.7898 97.2124 20.6648C97.576 20.5341 97.8913 20.3438 98.1584 20.0938C98.4254 19.8438 98.6271 19.5341 98.7635 19.1648L101.644 19.4886C101.462 20.25 101.116 20.9148 100.604 21.483C100.099 22.0455 99.451 22.483 98.6612 22.7955C97.8714 23.1023 96.968 23.2557 95.951 23.2557Z" fill="#9EBEFF"/>
<path d="M112.317 14.4602V17H104.459V14.4602H112.317ZM125.908 13.3693L123.096 13.6761C123.016 13.392 122.877 13.125 122.678 12.875C122.485 12.625 122.224 12.4233 121.894 12.2699C121.565 12.1165 121.161 12.0398 120.684 12.0398C120.042 12.0398 119.502 12.179 119.065 12.4574C118.633 12.7358 118.42 13.0966 118.425 13.5398C118.42 13.9205 118.559 14.2301 118.843 14.4688C119.133 14.7074 119.61 14.9034 120.275 15.0568L122.508 15.5341C123.746 15.8011 124.667 16.2244 125.269 16.804C125.877 17.3835 126.184 18.142 126.19 19.0795C126.184 19.9034 125.942 20.6307 125.465 21.2614C124.994 21.8864 124.337 22.375 123.496 22.7273C122.656 23.0795 121.69 23.2557 120.599 23.2557C118.996 23.2557 117.707 22.9205 116.729 22.25C115.752 21.5739 115.17 20.6335 114.982 19.429L117.991 19.1392C118.127 19.7301 118.417 20.1761 118.86 20.4773C119.303 20.7784 119.88 20.929 120.59 20.929C121.323 20.929 121.911 20.7784 122.354 20.4773C122.803 20.1761 123.028 19.804 123.028 19.3608C123.028 18.9858 122.883 18.6761 122.593 18.4318C122.309 18.1875 121.866 18 121.263 17.8693L119.031 17.4006C117.775 17.1392 116.846 16.6989 116.244 16.0795C115.641 15.4545 115.343 14.6648 115.349 13.7102C115.343 12.9034 115.562 12.2045 116.005 11.6136C116.454 11.017 117.076 10.5568 117.871 10.233C118.673 9.90341 119.596 9.73864 120.641 9.73864C122.175 9.73864 123.383 10.0653 124.263 10.7188C125.15 11.3722 125.698 12.2557 125.908 13.3693ZM131.819 15.3295V23H128.734V5.54545H131.751V12.1335H131.904C132.211 11.3949 132.685 10.8125 133.327 10.3864C133.975 9.95455 134.799 9.73864 135.799 9.73864C136.708 9.73864 137.501 9.92898 138.177 10.3097C138.853 10.6903 139.376 11.2472 139.745 11.9801C140.12 12.7131 140.308 13.608 140.308 14.6648V23H137.222V15.142C137.222 14.2614 136.995 13.5767 136.54 13.0881C136.092 12.5937 135.461 12.3466 134.648 12.3466C134.103 12.3466 133.614 12.4659 133.183 12.7045C132.756 12.9375 132.421 13.2756 132.177 13.7188C131.938 14.1619 131.819 14.6989 131.819 15.3295ZM147.219 23.2642C146.39 23.2642 145.643 23.1165 144.978 22.821C144.319 22.5199 143.796 22.0767 143.41 21.4915C143.029 20.9062 142.839 20.1847 142.839 19.3267C142.839 18.5881 142.975 17.9773 143.248 17.4943C143.521 17.0114 143.893 16.625 144.364 16.3352C144.836 16.0455 145.367 15.8267 145.958 15.679C146.555 15.5256 147.171 15.4148 147.808 15.3466C148.575 15.267 149.197 15.196 149.674 15.1335C150.151 15.0653 150.498 14.9631 150.714 14.8267C150.935 14.6847 151.046 14.4659 151.046 14.1705V14.1193C151.046 13.4773 150.856 12.9801 150.475 12.6278C150.094 12.2756 149.546 12.0994 148.83 12.0994C148.075 12.0994 147.475 12.2642 147.032 12.5938C146.594 12.9233 146.299 13.3125 146.146 13.7614L143.265 13.3523C143.492 12.5568 143.867 11.892 144.39 11.358C144.913 10.8182 145.552 10.4148 146.308 10.1477C147.063 9.875 147.898 9.73864 148.813 9.73864C149.444 9.73864 150.072 9.8125 150.697 9.96023C151.322 10.108 151.893 10.3523 152.41 10.6932C152.927 11.0284 153.342 11.4858 153.654 12.0653C153.972 12.6449 154.131 13.3693 154.131 14.2386V23H151.165V21.2017H151.063C150.876 21.5653 150.612 21.9062 150.271 22.2244C149.935 22.5369 149.512 22.7898 149.001 22.983C148.495 23.1705 147.901 23.2642 147.219 23.2642ZM148.021 20.9972C148.64 20.9972 149.177 20.875 149.631 20.6307C150.086 20.3807 150.435 20.0511 150.68 19.642C150.93 19.233 151.055 18.7869 151.055 18.304V16.7614C150.958 16.8409 150.793 16.9148 150.56 16.983C150.333 17.0511 150.077 17.1108 149.793 17.1619C149.509 17.2131 149.228 17.2585 148.95 17.2983C148.671 17.3381 148.43 17.3722 148.225 17.4006C147.765 17.4631 147.353 17.5653 146.989 17.7074C146.626 17.8494 146.339 18.0483 146.129 18.304C145.918 18.554 145.813 18.8778 145.813 19.2756C145.813 19.8438 146.021 20.2727 146.435 20.5625C146.85 20.8523 147.379 20.9972 148.021 20.9972ZM157.234 27.9091V9.90909H160.268V12.0739H160.447C160.606 11.7557 160.83 11.4176 161.12 11.0597C161.41 10.696 161.802 10.3864 162.296 10.1307C162.79 9.86932 163.421 9.73864 164.188 9.73864C165.2 9.73864 166.112 9.99716 166.924 10.5142C167.742 11.0256 168.39 11.7841 168.867 12.7898C169.35 13.7898 169.592 15.017 169.592 16.4716C169.592 17.9091 169.356 19.1307 168.884 20.1364C168.413 21.142 167.771 21.9091 166.958 22.4375C166.146 22.9659 165.225 23.2301 164.197 23.2301C163.447 23.2301 162.825 23.1051 162.33 22.8551C161.836 22.6051 161.438 22.304 161.137 21.9517C160.842 21.5937 160.612 21.2557 160.447 20.9375H160.319V27.9091H157.234ZM160.259 16.4545C160.259 17.3011 160.379 18.0426 160.617 18.679C160.862 19.3153 161.211 19.8125 161.665 20.1705C162.126 20.5227 162.683 20.6989 163.336 20.6989C164.018 20.6989 164.589 20.517 165.049 20.1534C165.509 19.7841 165.856 19.2812 166.089 18.6449C166.327 18.0028 166.447 17.2727 166.447 16.4545C166.447 15.642 166.33 14.9205 166.097 14.2898C165.864 13.6591 165.518 13.1648 165.058 12.8068C164.597 12.4489 164.023 12.2699 163.336 12.2699C162.677 12.2699 162.117 12.4432 161.657 12.7898C161.197 13.1364 160.847 13.6222 160.609 14.2472C160.376 14.8722 160.259 15.608 160.259 16.4545ZM178.029 23.2557C176.717 23.2557 175.583 22.983 174.629 22.4375C173.68 21.8864 172.95 21.108 172.438 20.1023C171.927 19.0909 171.671 17.9006 171.671 16.5312C171.671 15.1847 171.927 14.0028 172.438 12.9858C172.955 11.9631 173.677 11.1676 174.603 10.5994C175.529 10.0256 176.617 9.73864 177.867 9.73864C178.674 9.73864 179.435 9.86932 180.151 10.1307C180.873 10.3864 181.509 10.7841 182.06 11.3239C182.617 11.8636 183.055 12.5511 183.373 13.3864C183.691 14.2159 183.85 15.2045 183.85 16.3523V17.2983H173.12V15.2188H180.893C180.887 14.6278 180.759 14.1023 180.509 13.642C180.259 13.1761 179.91 12.8097 179.461 12.5426C179.018 12.2756 178.501 12.142 177.91 12.142C177.279 12.142 176.725 12.2955 176.248 12.6023C175.771 12.9034 175.398 13.3011 175.131 13.7955C174.87 14.2841 174.737 14.821 174.731 15.4062V17.2216C174.731 17.983 174.87 18.6364 175.148 19.1818C175.427 19.7216 175.816 20.1364 176.316 20.4261C176.816 20.7102 177.401 20.8523 178.072 20.8523C178.521 20.8523 178.927 20.7898 179.29 20.6648C179.654 20.5341 179.969 20.3438 180.237 20.0938C180.504 19.8438 180.705 19.5341 180.842 19.1648L183.722 19.4886C183.54 20.25 183.194 20.9148 182.683 21.483C182.177 22.0455 181.529 22.483 180.739 22.7955C179.95 23.1023 179.046 23.2557 178.029 23.2557ZM186.46 23V9.90909H189.452V12.0909H189.588C189.827 11.3352 190.236 10.7528 190.815 10.3438C191.401 9.92898 192.068 9.72159 192.818 9.72159C192.989 9.72159 193.179 9.73011 193.389 9.74716C193.605 9.75852 193.784 9.77841 193.926 9.80682V12.6449C193.795 12.5994 193.588 12.5597 193.304 12.5256C193.026 12.4858 192.756 12.4659 192.494 12.4659C191.932 12.4659 191.426 12.5881 190.977 12.8324C190.534 13.071 190.185 13.4034 189.929 13.8295C189.673 14.2557 189.545 14.7472 189.545 15.304V23H186.46Z" fill="#EDEDED"/>
<path d="M6.42499 12.5126C6.16718 12.5126 5.91428 12.565 5.67877 12.6637C5.47899 11.8923 5.37118 11.0842 5.37118 10.251C5.37095 4.92907 9.70043 0.600098 15.022 0.600098C20.3437 0.600098 24.6729 4.92935 24.6729 10.251C24.6729 11.0664 24.5693 11.8574 24.3776 12.6135C24.1807 12.5476 23.9745 12.5126 23.7644 12.5126C23.4671 12.5126 23.1814 12.5791 22.924 12.7023C23.1656 11.9269 23.2988 11.1045 23.2988 10.2508C23.2988 5.68694 19.5858 1.97419 15.0222 1.97419C10.4584 1.97419 6.74567 5.68717 6.74567 10.2508C6.74567 11.0782 6.86955 11.8773 7.09678 12.6318C6.88518 12.5546 6.65847 12.5126 6.42499 12.5126ZM7.48774 13.786C7.24912 13.4068 6.84174 13.1994 6.42477 13.1994C6.18994 13.1994 5.95222 13.2652 5.74037 13.4036C5.15979 13.7822 5.01917 14.5751 5.38813 15.1617L7.4703 18.4688L6.89842 18.8416C6.89842 18.8416 5.48076 16.7177 5.02745 15.9974C3.74327 13.9563 3.20179 10.8142 3.8223 7.75685C3.93302 7.21153 3.63346 6.66736 3.10847 6.48427C2.98838 6.44231 2.86651 6.42289 2.74687 6.42289C2.27031 6.42289 1.82944 6.73651 1.68658 7.22158C-0.282617 13.9153 2.30824 20.4256 5.34195 23.9461C5.69329 24.3537 5.85646 24.891 5.80602 25.4267L5.43146 29.3997L11.8612 29.3236L12.3462 25.5876C13.0627 24.2551 13.0154 22.6421 12.2223 21.3535C11.5288 20.2271 10.8069 19.0568 10.7802 19.0155L7.48774 13.786ZM17.8426 25.5881L18.3276 29.3241L24.7574 29.4L24.3826 25.4272C24.3319 24.8913 24.4953 24.3542 24.8466 23.9466C27.8804 20.4261 30.4712 13.9158 28.502 7.22207C28.3594 6.73703 27.9181 6.42339 27.4417 6.42339C27.3221 6.42339 27.2002 6.44326 27.0801 6.48477C26.5547 6.66781 26.2555 7.21243 26.3663 7.75734C26.9868 10.8147 26.4453 13.9568 25.1611 15.9979C24.708 16.7182 23.2902 18.8421 23.2902 18.8421L22.7183 18.4693L24.8005 15.1622C25.1697 14.576 25.0286 13.7827 24.4482 13.4041C24.2362 13.2659 23.9982 13.1999 23.7638 13.1999C23.3471 13.1999 22.9395 13.4075 22.7009 13.7865L19.4087 19.0162C19.3819 19.0575 18.6598 20.2278 17.9665 21.3542C17.1734 22.6423 17.1261 24.2553 17.8426 25.5881Z" fill="#9EBEFF"/>
<path d="M18.7258 18.4191C18.8803 18.7587 18.7309 19.1616 18.3813 19.2919C17.3183 19.6883 16.1919 19.8947 15.0538 19.8999C13.9158 19.905 12.7876 19.7089 11.721 19.3222C11.3702 19.195 11.2172 18.7935 11.3686 18.4525C11.5199 18.1115 11.9184 17.9606 12.2705 18.0838C13.1614 18.3953 14.1006 18.5532 15.0477 18.5489C15.9948 18.5446 16.9325 18.3782 17.8205 18.0586C18.1716 17.9323 18.5713 18.0795 18.7258 18.4191Z" fill="#9EBEFF"/>
<path d="M9.59992 10.8665V10.1506L13.0027 8.57961V9.46207L10.5849 10.4986L10.6123 10.4514V10.5658L10.5849 10.5185L13.0027 11.5551V12.4376L9.59992 10.8665Z" fill="#9EBEFF"/>
<path d="M16.201 7.2L14.5593 13.2952H13.7707L15.4124 7.2H16.201Z" fill="#9EBEFF"/>
<path d="M20.3699 10.8665L16.9671 12.4376V11.5551L19.3849 10.5185L19.3575 10.5658V10.4514L19.3849 10.4986L16.9671 9.46207V8.57961L20.3699 10.1506V10.8665Z" fill="#9EBEFF"/>
</svg>
